<?xml version="1.0" encoding="utf-8"?>
<!-- Generator: Adobe Illustrator 24.1.2, SVG Export Plug-In . SVG Version: 6.00 Build 0)  -->
<svg version="1.1" id="Capa_1" xmlns="http://www.w3.org/2000/svg" xmlns:xlink="http://www.w3.org/1999/xlink" x="0px" y="0px"
	 viewBox="0 0 720 552.76" style="enable-background:new 0 0 720 552.76;" xml:space="preserve">
<style type="text/css">
	.st0{fill:#E4B937;}
</style>
<g>
	<g>
		<path class="st0" d="M258.77,286.81c-1.21,0.25-2.46,0.38-3.8,0.38c-9.64,0-15.65-6.26-15.65-15.23v-0.33
			c0-9.1,6.85-15.19,15.78-15.19c9.1,0,15.82,5.72,15.82,14.98v0.33c0,5.22-2.04,9.47-5.55,12.19l3.01,3l-4.76,4.76L258.77,286.81z
			 M252.55,280.26l4.8-4.42l2.67,2.71c1.25-1.5,1.96-3.71,1.96-6.68v-0.33c0-5.3-2.67-8.43-6.89-8.43c-4.22,0-6.84,3.05-6.84,8.47
			v0.33C248.25,276.42,249.88,279.21,252.55,280.26z"/>
		<path class="st0" d="M273.84,274.58v-17.74h8.56v17.36c0,4.22,1.04,6.26,4.67,6.26c3.55,0,4.68-1.92,4.68-6.39v-17.24h8.64v17.61
			c0,8.68-5.09,12.73-13.32,12.73C278.64,287.19,273.84,282.93,273.84,274.58z"/>
		<path class="st0" d="M310.44,256.84h11.06l9.48,29.84h-9.06l-1.59-5.55h-9.89l-1.59,5.55h-7.97L310.44,256.84z M312.11,275.25
			h6.55l-3.26-11.48L312.11,275.25z"/>
		<path class="st0" d="M330.31,271.95v-0.33c0-9.1,6.68-15.24,15.65-15.24c7.05,0,13.32,3.21,13.9,10.98h-8.47
			c-0.42-2.8-2.21-4.26-5.38-4.26c-4.22,0-6.76,3.26-6.76,8.64v0.33c0,4.84,1.79,8.6,6.97,8.6c4.17,0,5.76-2.13,5.93-4.51h-5.59
			v-5.97h14.02v3.67c0,7.6-4.97,13.31-14.61,13.31C335.82,287.19,330.31,280.88,330.31,271.95z"/>
		<path class="st0" d="M363.7,256.84h20.62v6.59h-12.1v5.13h9.64v6.09h-9.64v5.43h12.77v6.6H363.7V256.84z"/>
		<path class="st0" d="M388.21,256.84h9.64l9.56,16.82v-16.82h7.47v29.84h-8.26l-10.89-18.74v18.74h-7.51V256.84z"/>
		<path class="st0" d="M419.59,256.84h10.85c10.6,0,15.99,5.3,15.99,14.57v0.33c0,9.31-5.51,14.94-16.03,14.94h-10.81V256.84z
			 M430.15,280.09c5.09,0,7.35-2.67,7.35-8.22v-0.33c0-5.68-2.25-8.1-7.43-8.1h-1.88v16.65H430.15z"/>
		<path class="st0" d="M455.33,256.84h11.06l9.48,29.84h-9.06l-1.59-5.55h-9.89l-1.59,5.55h-7.97L455.33,256.84z M457,275.25h6.55
			l-3.26-11.48L457,275.25z"/>
	</g>
	<path class="st0" d="M465.99,294.11c0,0,0.48,7.47-6.75,8.67c0,0-2.41,0.6-9.88,0.48c-7.47-0.12-72.42,0-72.42,0
		s-12.28-1.26-19.37,5.52c-7.08-6.78-19.37-5.52-19.37-5.52s-62-0.12-69.46,0c-7.47,0.12-9.88-0.48-9.88-0.48
		c-7.23-1.2-6.75-8.67-6.75-8.67h-9.88c0.24,6.74,3.61,11.68,7.83,14.82c4.53,3.37,12.77,3.49,12.77,3.49s70.43-0.84,79.7,0
		c7.08,0.64,12.39,5.14,14.52,7.24c0.2,0.19,0.37,0.37,0.51,0.52c0.14-0.15,0.31-0.32,0.51-0.52c2.13-2.1,7.45-6.59,14.52-7.24
		c9.27-0.84,82.66,0,82.66,0s8.24-0.13,12.77-3.49c4.22-3.13,7.59-8.07,7.83-14.82H465.99z"/>
	<g>
		<path class="st0" d="M472.51,257.82h1.06c0.42,0,0.68,0.23,0.68,0.59c0,0.27-0.12,0.49-0.39,0.57v0.01
			c0.26,0.05,0.32,0.24,0.33,0.46c0.02,0.22,0.01,0.46,0.13,0.62h-0.33c-0.08-0.09-0.04-0.34-0.08-0.55
			c-0.03-0.22-0.09-0.41-0.37-0.41h-0.73v0.96h-0.3V257.82z M473.43,258.86c0.28,0,0.52-0.07,0.52-0.4c0-0.22-0.12-0.38-0.4-0.38
			h-0.74v0.79H473.43z"/>
		<path class="st0" d="M470.74,258.9c0-1.45,1.17-2.63,2.62-2.63c1.44,0,2.61,1.18,2.61,2.63c0,1.45-1.17,2.63-2.61,2.63
			C471.91,261.53,470.74,260.36,470.74,258.9 M471.02,258.9c0,1.3,1.05,2.35,2.34,2.35c1.29,0,2.34-1.05,2.34-2.35
			c0-1.3-1.05-2.35-2.34-2.35C472.06,256.56,471.02,257.61,471.02,258.9"/>
	</g>
</g>
</svg>
