<?xml version="1.0" encoding="utf-8"?>
<!-- Generator: Adobe Illustrator 24.1.2, SVG Export Plug-In . SVG Version: 6.00 Build 0)  -->
<svg version="1.1" id="Layer_1" xmlns="http://www.w3.org/2000/svg" xmlns:xlink="http://www.w3.org/1999/xlink" x="0px" y="0px"
	 viewBox="0 0 1920 1080" style="enable-background:new 0 0 1920 1080;" xml:space="preserve">
<style type="text/css">
	.st0{fill:#14A4A7;}
</style>
<g>
	<g>
		<path class="st0" d="M161.74,547.17c-9.8,2.03-19.94,3.04-30.75,3.04c-78.06,0-126.71-50.68-126.71-123.33v-2.71
			c0-73.66,55.41-122.99,127.72-122.99c73.66,0,128.06,46.29,128.06,121.3v2.7c0,42.23-16.55,76.7-44.94,98.66l24.33,24.32
			l-38.52,38.52L161.74,547.17z M111.4,494.12l38.86-35.81l21.62,21.96c10.14-12.16,15.89-30.06,15.89-54.06v-2.7
			c0-42.91-21.62-68.25-55.76-68.25c-34.13,0-55.41,24.67-55.41,68.59v2.7C76.6,463.04,89.77,485.68,111.4,494.12z"/>
		<path class="st0" d="M283.72,448.17v-143.6h69.27v140.56c0,34.13,8.44,50.68,37.84,50.68c28.72,0,37.85-15.54,37.85-51.69V304.57
			h69.94v142.59c0,70.27-41.22,103.05-107.79,103.05C322.58,550.21,283.72,515.74,283.72,448.17z"/>
		<path class="st0" d="M580.05,304.57h89.54l76.7,241.59h-73.33l-12.84-44.94h-80.08l-12.84,44.94h-64.54L580.05,304.57z
			 M593.57,453.58h53.05l-26.35-92.92L593.57,453.58z"/>
		<path class="st0" d="M740.89,426.89v-2.71c0-73.66,54.06-123.33,126.71-123.33c57.1,0,107.79,26.02,112.52,88.86h-68.6
			c-3.38-22.64-17.9-34.46-43.59-34.46c-34.13,0-54.73,26.35-54.73,69.94v2.71c0,39.19,14.53,69.6,56.42,69.6
			c33.79,0,46.63-17.23,47.98-36.48h-45.27v-48.32h113.53v29.74c0,61.49-40.21,107.78-118.26,107.78
			C785.49,550.21,740.89,499.19,740.89,426.89z"/>
		<path class="st0" d="M1011.2,304.57h166.92v53.39h-97.98v41.56h78.05v49.33h-78.05v43.92h103.39v53.39H1011.2V304.57z"/>
		<path class="st0" d="M1209.55,304.57h78.06l77.38,136.17V304.57h60.48v241.59h-66.9l-88.2-151.71v151.71h-60.82V304.57z"/>
		<path class="st0" d="M1463.63,304.57h87.85c85.83,0,129.41,42.91,129.41,117.92v2.7c0,75.34-44.6,120.96-129.75,120.96h-87.51
			V304.57z M1549.12,492.77c41.22,0,59.47-21.62,59.47-66.56v-2.7c0-45.95-18.25-65.55-60.14-65.55h-15.21v134.81H1549.12z"/>
		<path class="st0" d="M1752.88,304.57h89.54l76.7,241.59h-73.33l-12.84-44.94h-80.08l-12.84,44.94h-64.54L1752.88,304.57z
			 M1766.39,453.58h53.05l-26.35-92.92L1766.39,453.58z"/>
	</g>
	<path class="st0" d="M1839.17,606.28c0,0,3.9,60.45-54.6,70.2c0,0-19.5,4.87-79.95,3.9c-60.45-0.98-586.27,0-586.27,0
		s-99.43-10.19-156.76,44.68c-57.34-54.87-156.76-44.68-156.76-44.68s-501.86-0.98-562.31,0c-60.45,0.97-79.95-3.9-79.95-3.9
		c-58.5-9.75-54.6-70.2-54.6-70.2H28.01c1.95,54.6,29.25,94.58,63.38,119.93c36.68,27.25,103.35,28.28,103.35,28.28
		s570.11-6.83,645.18,0c57.28,5.21,100.34,41.6,117.55,58.58c1.6,1.57,2.97,2.98,4.12,4.18c1.14-1.2,2.52-2.6,4.12-4.18
		c17.21-16.98,60.27-53.37,117.55-58.58c75.08-6.83,669.14,0,669.14,0s66.67-1.03,103.35-28.28
		c34.13-25.35,61.43-65.33,63.38-119.93H1839.17z"/>
	<g>
		<path class="st0" d="M1891.99,312.53h8.54c3.39,0,5.47,1.85,5.47,4.8c0,2.17-0.95,3.96-3.13,4.6v0.06c2.12,0.4,2.56,1.93,2.7,3.75
			c0.18,1.81,0.07,3.74,1.08,5.03h-2.66c-0.68-0.74-0.32-2.73-0.67-4.48c-0.25-1.8-0.71-3.29-3.01-3.29h-5.92v7.77h-2.4V312.53z
			 M1899.42,320.94c2.29,0,4.21-0.58,4.21-3.25c0-1.77-0.98-3.11-3.24-3.11h-5.99v6.36H1899.42z"/>
		<path class="st0" d="M1877.65,321.27c0-11.72,9.49-21.27,21.19-21.27c11.69,0,21.16,9.55,21.16,21.27
			c0,11.77-9.47,21.26-21.16,21.26C1887.14,342.53,1877.65,333.04,1877.65,321.27 M1879.89,321.27c0,10.54,8.48,19.01,18.95,19.04
			c10.47-0.03,18.91-8.5,18.93-19.04c-0.02-10.5-8.48-19-18.93-19.03C1888.37,302.27,1879.89,310.77,1879.89,321.27"/>
	</g>
</g>
</svg>
