<?xml version="1.0" encoding="utf-8"?>
<!-- Generator: Adobe Illustrator 24.1.2, SVG Export Plug-In . SVG Version: 6.00 Build 0)  -->
<svg version="1.1" id="Capa_1" xmlns="http://www.w3.org/2000/svg" xmlns:xlink="http://www.w3.org/1999/xlink" x="0px" y="0px"
	 viewBox="0 0 720 207" style="enable-background:new 0 0 720 207;" xml:space="preserve">
<style type="text/css">
	.st0{fill:#E4B937;}
</style>
<g>
	<g>
		<path class="st0" d="M59.73,99.35c-3.55,0.73-7.21,1.11-11.14,1.11C20.32,100.47,2.7,82.11,2.7,55.8v-0.97
			c0-26.68,20.09-44.54,46.27-44.54c26.68,0,46.39,16.77,46.39,43.93v0.97c0,15.31-5.98,27.77-16.27,35.75l8.83,8.8l-13.96,13.96
			L59.73,99.35z M41.49,80.14l14.08-12.96l7.83,7.95c3.67-4.4,5.75-10.88,5.75-19.59v-0.97c0-15.54-7.83-24.72-20.2-24.72
			c-12.37,0-20.06,8.94-20.06,24.84v0.97C28.88,68.88,33.66,77.06,41.49,80.14z"/>
		<path class="st0" d="M103.92,63.49V11.47h25.1v50.91c0,12.37,3.05,18.36,13.69,18.36c10.41,0,13.72-5.63,13.72-18.74V11.44h25.34
			v51.64c0,25.45-14.93,37.33-39.06,37.33C118,100.47,103.92,87.97,103.92,63.49z"/>
		<path class="st0" d="M211.25,11.47h32.43l27.8,87.5h-26.57l-4.66-16.27h-29l-4.66,16.27h-23.37L211.25,11.47z M216.15,65.45h19.21
			l-9.56-33.66L216.15,65.45z"/>
		<path class="st0" d="M269.52,55.78v-0.97c0-26.68,19.59-44.69,45.89-44.69c20.67,0,39.06,9.41,40.76,32.2h-24.84
			c-1.23-8.21-6.48-12.49-15.78-12.49c-12.37,0-19.82,9.56-19.82,25.34v0.97c0,14.19,5.25,25.22,20.44,25.22
			c12.23,0,16.89-6.25,17.39-13.23h-16.39V50.61h41.11v10.76c0,22.29-14.57,39.03-42.84,39.03
			C285.67,100.47,269.52,81.96,269.52,55.78z"/>
		<path class="st0" d="M367.43,11.47h60.47v19.32h-35.48v15.04h28.27v17.86h-28.27v15.92h37.45v19.35h-62.43V11.47z"/>
		<path class="st0" d="M439.3,11.47h28.27l28.03,49.32V11.47h21.91v87.5h-24.22l-31.93-54.95v54.95h-22.02v-87.5H439.3z"/>
		<path class="st0" d="M531.32,11.47h31.82c31.08,0,46.89,15.54,46.89,42.73v0.97c0,27.3-16.16,43.81-47.01,43.81h-31.7V11.47z
			 M562.29,79.64c14.93,0,21.55-7.83,21.55-24.1v-0.97c0-16.66-6.6-23.75-21.79-23.75h-5.51v48.82H562.29z"/>
		<path class="st0" d="M636.13,11.47h32.43l27.8,87.5h-26.57l-4.66-16.27h-29l-4.66,16.27h-23.37L636.13,11.47z M641.02,65.45h19.21
			l-9.56-33.66L641.02,65.45z"/>
	</g>
	<path class="st0" d="M667.39,120.76c0,0,1.41,21.91-19.79,25.42c0,0-7.07,1.76-28.97,1.41c-21.91-0.35-212.37,0-212.37,0
		s-36.01-3.69-56.8,16.19c-20.76-19.88-56.8-16.19-56.8-16.19s-181.81-0.35-203.69,0C67.06,147.94,60,146.18,60,146.18
		c-21.2-3.52-19.79-25.42-19.79-25.42H11.23c0.7,19.76,10.59,34.25,22.96,43.46c13.28,9.88,37.45,10.23,37.45,10.23
		s206.53-2.46,233.71,0c20.76,1.88,36.33,15.07,42.58,21.23c0.59,0.56,1.08,1.08,1.5,1.52c0.41-0.44,0.91-0.94,1.5-1.52
		c6.25-6.16,21.85-19.32,42.58-21.23c27.18-2.46,242.39,0,242.39,0s24.16-0.38,37.45-10.23c12.37-9.18,22.26-23.66,22.96-43.46
		H667.39z"/>
	<g>
		<path class="st0" d="M693.5,20.46h7.29c2.89,0,4.68,1.58,4.68,4.06c0,1.86-0.83,3.37-2.68,3.92v0.07c1.79,0.34,2.2,1.65,2.27,3.17
			c0.14,1.51,0.07,3.17,0.89,4.27h-2.27c-0.55-0.62-0.28-2.34-0.55-3.78c-0.21-1.51-0.62-2.82-2.55-2.82h-5.02v6.61h-2.06V20.46z
			 M699.83,27.62c1.93,0,3.58-0.48,3.58-2.75c0-1.51-0.83-2.61-2.75-2.61h-5.09v5.44h4.27V27.62z"/>
		<path class="st0" d="M681.32,27.89c0-9.98,8.05-18.1,18.03-18.1c9.91,0,17.96,8.12,17.96,18.1s-8.05,18.1-17.96,18.1
			C689.37,45.99,681.32,37.94,681.32,27.89 M683.24,27.89c0,8.95,7.22,16.17,16.1,16.17c8.88,0,16.1-7.22,16.1-16.17
			c0-8.95-7.22-16.17-16.1-16.17C690.4,11.79,683.24,19.02,683.24,27.89"/>
	</g>
</g>
</svg>
