<?xml version="1.0" encoding="iso-8859-1"?>
<!-- Generator: Adobe Illustrator 19.0.0, SVG Export Plug-In . SVG Version: 6.00 Build 0)  -->
<svg version="1.1" id="Layer_1" xmlns="http://www.w3.org/2000/svg" xmlns:xlink="http://www.w3.org/1999/xlink" x="0px" y="0px"
	 viewBox="0 0 512.002 512.002" style="enable-background:new 0 0 512.002 512.002;" xml:space="preserve">
<g>
	<g>
		<path d="M412.016,159.566c4.714-3.078,7.079-4.624,13.433-4.624c6.355,0,8.722,1.545,13.437,4.624
			c6.144,4.011,14.557,9.505,29.84,9.505c15.282,0,23.695-5.494,29.839-9.505c4.715-3.079,7.081-4.624,13.437-4.624v-30
			c-15.282,0-23.695,5.494-29.839,9.505c-4.715,3.079-7.081,4.624-13.437,4.624s-8.723-1.545-13.438-4.624
			c-6.144-4.011-14.557-9.505-29.839-9.505c-15.281,0-23.694,5.494-29.837,9.505c-4.714,3.078-7.079,4.624-13.433,4.624
			s-8.72-1.545-13.435-4.624c-3.802-2.483-8.477-5.53-15.108-7.495c-36.794-43.615-91.819-71.373-153.215-71.373
			C89.909,55.58,0,145.488,0,256.001s89.909,200.421,200.421,200.421c63.447,0,120.095-29.642,156.844-75.796
			c5.693,3.276,13.326,6.434,24.913,6.434c15.281,0,23.694-5.494,29.837-9.505c4.714-3.078,7.079-4.624,13.433-4.624
			c6.355,0,8.722,1.545,13.437,4.624c6.144,4.011,14.557,9.505,29.84,9.505c15.282,0,23.695-5.494,29.839-9.505
			c4.715-3.079,7.081-4.624,13.437-4.624v-30c-15.282,0-23.695,5.494-29.839,9.505c-4.715,3.079-7.081,4.624-13.437,4.624
			s-8.723-1.545-13.438-4.624c-6.144-4.011-14.557-9.505-29.839-9.505c-15.281,0-23.694,5.494-29.837,9.505
			c-4.714,3.078-7.079,4.624-13.433,4.624c-3.492,0-5.779-0.47-7.914-1.401c7.592-13.192,13.712-27.332,18.166-42.184
			c9.096-1.734,14.979-5.575,19.584-8.583c4.714-3.078,7.079-4.624,13.433-4.624c6.355,0,8.722,1.545,13.437,4.624
			c6.144,4.011,14.557,9.505,29.84,9.505c15.282,0,23.695-5.494,29.839-9.505c4.715-3.079,7.081-4.624,13.437-4.624v-30
			c-15.282,0-23.695,5.494-29.839,9.505c-4.715,3.079-7.081,4.624-13.437,4.624s-8.723-1.545-13.438-4.624
			c-6.144-4.011-14.557-9.505-29.839-9.505c-12.147,0-19.947,3.472-25.724,6.911c0.734-6.961,1.119-14.025,1.119-21.178
			c0-5.847-0.267-11.632-0.76-17.354c4.995-1.899,8.77-4.353,11.933-6.419c4.714-3.078,7.079-4.624,13.433-4.624
			c6.355,0,8.722,1.545,13.437,4.624c6.144,4.011,14.557,9.505,29.84,9.505c15.282,0,23.695-5.494,29.839-9.505
			c4.715-3.079,7.081-4.624,13.437-4.624v-30c-15.282,0-23.695,5.494-29.839,9.505c-4.715,3.079-7.081,4.624-13.437,4.624
			s-8.723-1.545-13.438-4.624c-6.144-4.011-14.557-9.505-29.839-9.505c-15.281,0-23.694,5.494-29.837,9.505
			c-0.24,0.157-0.47,0.307-0.699,0.456c-3.344-13.422-8.032-26.316-13.934-38.522c0.402,0.008,0.789,0.027,1.201,0.027
			C397.46,169.072,405.873,163.577,412.016,159.566z M325.475,159.567c4.367-2.853,6.725-4.386,12.101-4.596
			c10.728,14.526,19.203,30.808,24.915,48.33c-5.544-2.997-12.873-5.696-23.584-5.696c-0.024,0-0.047,0.002-0.071,0.002
			c-5.185-12.245-11.953-23.662-20.04-34C321.347,162.259,323.527,160.84,325.475,159.567z M200.421,426.423
			C106.451,426.422,30,349.973,30,256.001S106.451,85.58,200.421,85.58c44.359,0,84.809,17.042,115.161,44.915
			c-2.48,1.322-4.606,2.709-6.511,3.953c-4.714,3.078-7.079,4.624-13.433,4.624c-0.358,0-0.7-0.007-1.034-0.016
			c-25.782-20.805-58.55-33.283-94.183-33.283c-82.836,0-150.229,67.393-150.229,150.229s67.393,150.229,150.229,150.229
			c28.595,0,55.348-8.034,78.126-21.959c4.557,1.632,10.099,2.788,17.091,2.788c6.789,0,12.217-1.087,16.699-2.644
			C282.375,410.562,243.217,426.423,200.421,426.423z M309.07,279.775c-4.714,3.078-7.079,4.624-13.433,4.624
			s-8.719-1.545-13.433-4.624c-6.143-4.012-14.555-9.505-29.836-9.505v30c6.353,0,8.719,1.545,13.432,4.624
			c6.143,4.011,14.555,9.505,29.837,9.505c3.877,0,7.308-0.356,10.375-0.949c-7.46,13.657-17.492,25.714-29.441,35.519
			c-5.614-3.13-13.086-6.038-24.201-6.038v21.486c-15.733,7.569-33.354,11.814-51.949,11.814
			c-66.294,0-120.229-53.935-120.229-120.229s53.935-120.229,120.229-120.229c18.595,0,36.216,4.245,51.949,11.814v7.357
			c6.353,0,8.719,1.545,13.432,4.624c3.891,2.541,8.7,5.673,15.582,7.63c12.014,10.963,21.805,24.323,28.604,39.317
			c-0.31,0.201-0.618,0.402-0.917,0.597c-4.714,3.078-7.079,4.624-13.433,4.624s-8.719-1.545-13.433-4.624
			c-6.143-4.012-14.555-9.505-29.836-9.505v30c6.353,0,8.719,1.545,13.432,4.624c6.143,4.011,14.555,9.505,29.837,9.505
			c10.566,0,17.846-2.627,23.365-5.574c1.077,6.457,1.646,13.083,1.646,19.841c0,6.131-0.464,12.156-1.354,18.042
			C315.133,275.826,311.862,277.951,309.07,279.775z M346.643,343.445c-2.368-0.326-4.934-0.514-7.736-0.514
			c-7.693,0-13.643,1.393-18.441,3.288c10.226-13.573,18.21-28.924,23.389-45.504c3.097,0.66,5.233,2.054,8.486,4.177
			c2.655,1.734,5.737,3.743,9.611,5.467C358.025,321.999,352.867,333.077,346.643,343.445z M369.141,280.033
			c-0.132-0.086-0.26-0.169-0.396-0.258c-4.482-2.927-10.186-6.634-18.871-8.429c0.514-5.046,0.778-10.164,0.778-15.343
			c0-8.95-0.79-17.719-2.298-26.242c1.228,0.669,2.49,1.491,3.99,2.47c4.292,2.803,9.703,6.324,17.782,8.195
			c0.465,5.131,0.717,10.324,0.717,15.576C370.843,264.158,370.254,272.178,369.141,280.033z"/>
	</g>
</g>
<g>
</g>
<g>
</g>
<g>
</g>
<g>
</g>
<g>
</g>
<g>
</g>
<g>
</g>
<g>
</g>
<g>
</g>
<g>
</g>
<g>
</g>
<g>
</g>
<g>
</g>
<g>
</g>
<g>
</g>
</svg>
